<svg width="454" height="406" viewBox="0 0 454 406" fill="none" xmlns="http://www.w3.org/2000/svg">
<path d="M418.56 3.20834C417.569 0.630599 414.677 -0.65626 412.099 0.334058C409.521 1.32437 408.235 4.21686 409.225 6.79459L413.892 5.00146L418.56 3.20834ZM447.892 93.5015L442.912 93.9444L447.892 93.5015ZM137.392 270.501L141.791 268.124L141.791 268.124L137.392 270.501ZM144.355 403.951C145.983 406.18 149.111 406.668 151.341 405.039L187.681 378.498C189.911 376.869 190.398 373.741 188.769 371.511C187.141 369.281 184.012 368.793 181.782 370.422L149.481 394.015L125.888 361.713C124.26 359.483 121.132 358.996 118.902 360.625C116.672 362.253 116.184 365.381 117.813 367.611L144.355 403.951ZM413.892 5.00146L409.225 6.79459C415.962 24.3305 423.933 37.8225 430.147 50.5729C436.419 63.4435 441.344 76.3187 442.912 93.9444L447.892 93.5015L452.873 93.0585C451.16 73.8056 445.725 59.7115 439.136 46.1921C432.489 32.5525 425.101 20.2338 418.56 3.20834L413.892 5.00146ZM447.892 93.5015L442.912 93.9444C444.33 109.893 441.362 121.591 435.487 130.188C429.598 138.806 420.379 144.904 408.179 148.858C383.521 156.849 348.167 155.614 309.141 150.041C270.294 144.494 228.698 134.802 191.851 126.495C155.357 118.267 122.939 111.242 103.326 111.502L103.392 116.501L103.459 121.501C121.596 121.261 152.608 127.899 189.652 136.25C226.343 144.522 268.393 154.324 307.727 159.941C346.881 165.531 384.243 167.127 411.262 158.371C424.9 153.951 436.26 146.781 443.744 135.83C451.242 124.858 454.44 110.686 452.873 93.0585L447.892 93.5015ZM103.392 116.501L103.326 111.502C65.3929 112.004 33.4308 118.367 15.5515 131.118C6.41823 137.632 0.500692 146.17 0.0299862 156.708C-0.431124 167.031 4.40254 178.098 14.0476 189.698L17.8923 186.501L21.7369 183.305C12.8819 172.655 9.71549 163.972 10.02 157.154C10.315 150.551 13.9287 144.558 21.3581 139.26C36.6039 128.386 65.892 121.999 103.459 121.501L103.392 116.501ZM17.8923 186.501L14.0476 189.698C33.475 213.063 57.8281 221.934 79.4105 230.983C101.152 240.098 120.311 249.421 132.994 272.879L137.392 270.501L141.791 268.124C127.344 241.402 105.254 230.975 83.2773 221.761C61.1421 212.48 39.3098 204.44 21.7369 183.305L17.8923 186.501ZM137.392 270.501L132.994 272.879C144.504 294.17 147.303 325.669 147.014 352.569C146.871 365.886 145.977 377.828 145.119 386.442C144.69 390.745 144.27 394.211 143.959 396.592C143.804 397.782 143.676 398.701 143.587 399.318C143.543 399.627 143.508 399.86 143.485 400.013C143.474 400.09 143.465 400.147 143.459 400.184C143.456 400.202 143.454 400.215 143.453 400.223C143.453 400.227 143.452 400.23 143.452 400.231C143.452 400.232 143.452 400.232 143.452 400.232C143.452 400.232 143.452 400.232 148.392 401.001C153.333 401.771 153.333 401.77 153.333 401.769C153.333 401.768 153.334 401.766 153.334 401.764C153.334 401.76 153.335 401.755 153.336 401.749C153.338 401.736 153.341 401.718 153.344 401.695C153.351 401.649 153.362 401.583 153.374 401.496C153.4 401.323 153.438 401.071 153.485 400.742C153.58 400.084 153.714 399.122 153.875 397.887C154.198 395.416 154.629 391.849 155.069 387.433C155.949 378.608 156.866 366.361 157.013 352.676C157.305 325.574 154.604 291.823 141.791 268.124L137.392 270.501Z" fill="#FFF8D4"/>
</svg>
